<svg width="2144" height="503" viewBox="0 0 2144 503" fill="none" xmlns="http://www.w3.org/2000/svg">
<path d="M2143.54 502.41H0V0H2143.54V502.41ZM63.31 106.62V329.64H108.04V183.48H109.93L167.89 328.38H198.76L256.72 183.48H258.61V329.64H303.97V106.62H246.64L184.9 257.82H182.38L120.01 106.62H63.31ZM406.66 332.79C447.61 332.79 475.02 312.94 481.63 282.39H438.16C433.75 291.84 422.72 298.77 407.29 298.77C383.66 298.77 368.86 283.02 368.86 257.82H482.89V245.22C482.89 188.2 448.24 160.48 404.77 160.17C355.63 160.48 323.81 195.45 323.5 247.11C323.81 299.72 355 332.79 406.66 332.79ZM368.86 229.47C369.49 210.26 383.98 194.5 405.4 194.19C425.56 194.5 439.74 209 440.05 229.47H368.86ZM597.55 212.46H639.76C637.55 180.33 611.72 160.48 569.2 160.17C526.36 160.48 498.64 180.33 498.64 212.46C498.64 237.03 515.02 253.73 547.15 259.71L574.87 265.38C590.31 268.53 597.24 273.88 597.55 282.39C597.24 293.41 586.21 300.03 569.83 300.03C553.45 300.03 542.42 293.1 540.22 279.87H494.23C498.01 312.63 524.47 332.79 569.83 332.79C615.19 332.79 643.54 310.74 643.54 277.98C643.54 254.04 627.79 239.55 595.66 232.62L565.42 226.95C549.98 223.49 544 217.5 544 209.94C544 199.86 555.02 192.93 569.83 192.93C584.64 192.93 595.35 200.49 597.55 212.46ZM757.57 212.46H799.78C797.58 180.33 771.74 160.48 729.22 160.17C686.38 160.48 658.66 180.33 658.66 212.46C658.66 237.03 675.04 253.73 707.17 259.71L734.89 265.38C750.33 268.53 757.26 273.88 757.57 282.39C757.26 293.41 746.23 300.03 729.85 300.03C713.47 300.03 702.44 293.1 700.24 279.87H654.25C658.03 312.63 684.49 332.79 729.85 332.79C775.21 332.79 803.56 310.74 803.56 277.98C803.56 254.04 787.81 239.55 755.68 232.62L725.44 226.95C710 223.49 704.02 217.5 704.02 209.94C704.02 199.86 715.05 192.93 729.85 192.93C744.65 192.93 755.37 200.49 757.57 212.46ZM814.27 283.02C814.27 316.1 837.9 332.79 869.71 332.79C894.6 332.79 910.35 322.08 918.22 306.33H920.11V329.64H962.95V216.87C962.95 176.86 928.61 160.48 892.39 160.17C847.97 160.48 822.46 183.17 819.94 212.46H863.41C865.62 200.8 875.38 193.87 891.13 193.56C907.83 193.87 917.59 201.75 917.59 216.24V229.47L876.01 231.36C844.19 233.57 814.27 245.54 814.27 283.02ZM857.74 281.76C857.74 268.84 867.82 261.28 883.57 259.71C891.13 259.08 910.66 258.14 917.59 257.82V269.79C917.9 287.43 903.41 301.29 882.31 301.29C868.13 301.29 857.74 294.36 857.74 281.76ZM1063.12 395.79C1111 395.79 1144.39 374.05 1144.39 331.53V162.69H1099.66V190.41H1097.77C1091.47 177.18 1077.92 160.48 1049.89 160.17C1013.03 160.48 981.85 188.52 981.85 245.22C981.85 301.92 1012.09 327.12 1049.89 327.12C1076.67 327.12 1091.47 313.58 1097.77 300.03H1099.66V330.9C1099.66 353.9 1085.48 362.72 1064.38 363.03C1046.11 362.71 1033.51 356.73 1030.99 343.5H986.26C988.78 375 1017.45 395.79 1063.12 395.79ZM1028.47 245.85C1028.47 216.87 1040.76 196.71 1064.38 196.71C1088 196.71 1099.66 215.93 1099.66 245.85C1099.66 275.77 1086.74 293.1 1064.38 293.1C1042.02 293.1 1028.47 274.51 1028.47 245.85ZM1246.45 332.79C1287.4 332.79 1314.81 312.94 1321.42 282.39H1277.95C1273.54 291.84 1262.51 298.77 1247.08 298.77C1223.45 298.77 1208.65 283.02 1208.65 257.82H1322.68V245.22C1322.68 188.2 1288.03 160.48 1244.56 160.17C1195.42 160.48 1163.6 195.45 1163.29 247.11C1163.61 299.72 1194.79 332.79 1246.45 332.79ZM1208.65 229.47C1209.28 210.26 1223.77 194.5 1245.19 194.19C1265.35 194.5 1279.53 209 1279.84 229.47H1208.65ZM1397.02 145.05H1465.06V329.64H1511.05V145.05H1579.09V106.62H1397.02V145.05ZM1605.24 392.01C1640.52 392.33 1658.48 375 1668.24 347.91L1733.13 162.69H1685.25L1649.97 285.54H1648.08L1612.8 162.69H1564.92L1624.77 334.05L1622.25 341.61C1616.9 355.79 1609.65 356.73 1600.2 356.73C1594.85 356.73 1587.92 356.42 1581.93 356.1V391.38C1587.92 392.01 1596.11 392.33 1605.24 392.01ZM1745.73 392.01H1791.09V303.18H1792.98C1799.28 316.72 1813.14 332.47 1840.23 332.16C1878.66 332.47 1908.27 302.23 1908.27 246.48C1908.27 190.73 1877.4 160.48 1840.23 160.17C1812.19 160.48 1798.96 177.18 1792.98 190.41H1790.46V162.69H1745.73V392.01ZM1790.46 245.85C1790.46 215.92 1803.06 196.71 1825.74 196.71C1848.42 196.71 1861.65 216.87 1861.65 245.85C1861.65 274.83 1849.05 295.94 1825.74 296.25C1803.37 295.94 1790.46 276.09 1790.46 245.85ZM2004.03 332.79C2044.98 332.79 2072.39 312.94 2079 282.39H2035.53C2031.12 291.84 2020.09 298.77 2004.66 298.77C1981.04 298.77 1966.23 283.02 1966.23 257.82H2080.26V245.22C2080.26 188.2 2045.61 160.48 2002.14 160.17C1953 160.48 1921.18 195.45 1920.87 247.11C1921.18 299.72 1952.37 332.79 2004.03 332.79ZM1966.23 229.47C1966.86 210.26 1981.35 194.5 2002.77 194.19C2022.93 194.5 2037.1 209 2037.42 229.47H1966.23Z" fill="#181818"/>
</svg>
